<svg width="286" height="61" viewBox="0 0 286 61" fill="none" xmlns="http://www.w3.org/2000/svg"><path fill-rule="evenodd" clip-rule="evenodd" d="M138.216 30.144h-7.556v13.281c0 2.493 0 5.6-3.573 5.6-3.675 0-3.675-3.107-3.675-5.6V30.144h-7.557v14.954c0 6.76 3.71 10.004 11.198 10.004s11.163-3.243 11.163-10.004V30.144zm2.336 24.378h6.801v-9.355c0-2.834 1.546-3.415 2.713-3.415 1.993 0 2.233 1.435 2.233 3.483v9.287h6.801V42.367c0-4.063-2.919-6.01-6.114-6.01-2.713 0-4.534.923-5.805 2.698h-.069v-2.253h-6.56v17.72zm21.021 0h6.801v-17.72h-6.801v17.72zm0-19.632h6.801v-4.746h-6.801v4.746zm27.582 1.912h-6.938L179.4 47.59h-.068l-2.783-10.79h-7.179l5.839 17.72h8.038l5.908-17.72zm5.909 6.863c.309-1.913 1.477-2.971 3.503-2.971 1.752 0 2.989 1.332 2.989 2.97h-6.492zm13.018 3.516c0-6.897-3.057-10.823-10.133-10.823-5.633 0-9.412 4.2-9.412 9.355 0 5.906 4.294 9.252 9.996 9.252 4.053 0 7.797-1.775 9.171-5.599h-6.354c-.55.854-1.752 1.264-2.851 1.264-2.13 0-3.298-1.435-3.47-3.449h13.053zm1.477 7.34h6.801v-6.999c0-3.79 1.443-5.36 4.121-5.36 1.375 0 1.993.205 2.68.444v-5.975a7.792 7.792 0 00-1.992-.273c-2.473 0-3.916 1.16-5.015 3.278h-.069v-2.834h-6.526v17.72zm31.738-12.564c-.172-4.54-4.809-5.6-8.656-5.6-3.573 0-8.415 1.162-8.415 5.635 0 3.038 2.095 4.677 7.282 5.565 3.16.546 3.743.853 3.743 1.878 0 1.024-1.408 1.365-2.301 1.365-.824 0-1.477-.205-1.82-.512-.516-.444-.791-.956-.825-1.57h-6.492c.103 4.574 4.706 6.247 8.896 6.247 4.329 0 9.069-1.33 9.069-6.248 0-2.902-1.992-4.233-4.259-4.95-2.268-.752-4.844-.888-5.977-1.366-.378-.17-.79-.41-.79-.922 0-1.16 1.099-1.365 2.061-1.365.549 0 1.099.17 1.511.512.447.307.756.75.79 1.331h6.183zm1.992 12.565h6.801v-17.72h-6.801v17.72zm-.001-19.632h6.802v-4.746h-6.802v4.746zm18.171-3.483h-6.801v5.395h-3.023v4.165h3.023v8.468c0 4.847 3.195 5.291 6.08 5.291 1.442 0 2.988-.204 4.362-.204V49.4a11.79 11.79 0 01-1.545.102c-1.718 0-2.096-.716-2.096-2.355v-6.18h3.641v-4.165h-3.641v-5.395zm24.251 5.395h-7.041l-2.886 10.174h-.069l-2.85-10.174h-7.283l3.023 8.16c.378 1.024 2.988 7.545 2.988 8.399 0 .785-.24 1.126-.652 1.331-.481.24-1.374.171-2.061.171h-1.58v5.394h3.091c2.645 0 5.393.035 7.179-2.184 1.065-1.332 1.683-3.346 2.233-4.917l5.908-16.354zm-169.786-11.51h7.144V9.654h.069l4.259 15.638h5.633l4.26-15.638h.069v15.638h7.144V.914h-10.751l-3.504 14.34h-.068L126.675.913h-10.751v24.378zm49.531-17.72h-6.801v9.354c0 2.834-1.546 3.415-2.714 3.415-1.992 0-2.233-1.434-2.233-3.483V7.572h-6.801v12.155c0 4.062 2.92 6.008 6.115 6.008 2.713 0 4.533-.922 5.804-2.697h.069v2.254h6.561V7.572zm2.335 17.72h6.802v-7c0-3.79 1.442-5.36 4.122-5.36 1.373 0 1.992.205 2.679.444V7.4a7.805 7.805 0 00-1.992-.273c-2.473 0-3.916 1.16-5.016 3.277h-.068V7.572h-6.527v17.72zM200.978.914h-6.802v8.604h-.068c-1.031-1.503-2.851-2.39-4.878-2.39-5.977 0-7.591 5.053-7.591 9.218 0 4.439 2.438 9.39 7.488 9.39 3.332 0 4.363-1.264 5.221-2.39h.069v1.946h6.561V.914zm-6.561 15.5c0 2.117-.55 4.404-2.988 4.404-2.439 0-2.989-2.287-2.989-4.404 0-2.082.55-4.37 2.989-4.37 2.438 0 2.988 2.288 2.988 4.37zm26.895 0c0-4.916-3.022-9.286-9.72-9.286-6.699 0-9.721 4.37-9.721 9.287 0 4.916 3.022 9.32 9.721 9.32 6.698 0 9.72-4.404 9.72-9.32zm-6.801 0c0 1.878-.343 4.404-2.919 4.404-2.577 0-2.92-2.526-2.92-4.404 0-1.877.343-4.37 2.92-4.37 2.576 0 2.919 2.493 2.919 4.37zm27.033-2.117c-.412-4.882-4.397-7.17-9.069-7.17-5.358 0-9.652 3.722-9.652 9.321 0 5.6 4.294 9.287 9.652 9.287 4.81 0 8.622-2.697 9.275-7.511h-6.492c-.137 1.4-1.168 2.595-2.645 2.595-2.611 0-2.988-2.22-2.988-4.37 0-2.152.377-4.405 2.988-4.405.721 0 1.305.205 1.717.581.447.375.688.955.756 1.672h6.458zm1.648 10.995h6.802v-9.356c0-2.834 1.545-3.414 2.713-3.414 1.992 0 2.233 1.434 2.233 3.483v9.287h6.801V13.137c0-4.063-2.92-6.01-6.114-6.01-2.885 0-4.397.99-5.565 2.356h-.068V.913h-6.802v24.379zm-139.706 5.65V1.119H88.252v30.284c0 7.532-3.944 11.067-9.975 11.067-6.032 0-9.975-3.688-9.975-11.451v-29.9H58.69l.018-.027H41.924l-12.99 20.952L15.946 1.092H0V54.89h14.425V23.232l.586.9 13.924 21.183h.056l12.25-18.22 1.85-2.81v.06L53.069 9.49v21.836c0 16.832 9.666 24.595 25.054 24.595 15.388 0 25.364-7.608 25.364-24.98z" fill="#E12744"/></svg>